<svg xmlns="http://www.w3.org/2000/svg" version="1.1" viewBox="-5.0 -10.0 110.0 135.0">
 <path fill="#2A3A93" d="m63.594 23.656c2.1797 0 4.0547-1.5391 4.4766-3.6758 0.42578-2.1367-0.71875-4.2734-2.7305-5.1094-2.0156-0.83203-4.3359-0.12891-5.543 1.6836-1.2109 1.8125-0.97266 4.2266 0.56641 5.7656 0.85547 0.85938 2.0195 1.3398 3.2305 1.3359zm-38.094-6.6406h6.4922c0.38281 0 0.75 0.15234 1.0195 0.42188s0.42188 0.63672 0.42188 1.0156v5.4531h5.4531v0.003906c0.38281-0.003906 0.74609 0.14844 1.0156 0.41797 0.039062 0.039063 0.074218 0.082031 0.10547 0.125 0.20703 0.25391 0.31641 0.57031 0.31641 0.89453v6.4922c0 0.79297-0.64453 1.4375-1.4375 1.4414h-5.4531v5.457c0 0.37891-0.15234 0.74609-0.42188 1.0156-0.26953 0.26953-0.63672 0.42188-1.0195 0.42188h-6.4922c-0.79297 0-1.4375-0.64453-1.4375-1.4375v-5.457h-5.457c-0.79297 0-1.4375-0.64453-1.4375-1.4414v-6.4922c0-0.79297 0.64453-1.4375 1.4375-1.4375h5.4531l0.003906-5.457c0-0.37891 0.14844-0.74609 0.42188-1.0156 0.26953-0.26953 0.63672-0.42188 1.0156-0.42188zm5.7109 2.2188h-4.9297v5.7852c0 0.61328-0.49609 1.1094-1.1094 1.1094h-5.7852v4.9297h5.7852c0.61328 0 1.1094 0.5 1.1094 1.1133v5.7812h4.9297v-5.7812c0-0.61328 0.5-1.1133 1.1133-1.1133h5.7812v-4.9297h-5.7812c-0.61328 0-1.1133-0.49609-1.1133-1.1094zm32.301 32.168 16.656-8.7383c0.027343-0.015624 0.054687-0.027343 0.078125-0.039062 2.8516-1.2109 4.7266-0.83203 5.625 1.1406h0.003906c0.42578-0.085937 0.85938-0.11719 1.293-0.097656 0.52734 0.023437 1.0352 0.19141 1.4648 0.48828 0.41797 0.30078 0.73047 0.72656 0.88672 1.2148 1.4922-0.37109 3.0586-0.30078 4.5078 0.20312 0.91016 0.32422 1.7109 0.90234 2.3086 1.6602 0.59375 0.76953 0.90625 1.7188 0.89062 2.6914-0.097656 1.6328-0.78906 3.168-1.9414 4.3242-0.054687 0.058594-0.11328 0.11328-0.17969 0.16016l-28.031 20.25c-11.473 9.6211-16.344 9.1289-21.359 8.625l-0.003906-0.003906c-4.1875-0.66797-8.4805 0.16016-12.121 2.332 0.10156 0.24219 0.14062 0.50781 0.12109 0.76953-0.039063 0.4375-0.24609 0.84375-0.58203 1.1289l-2.4453 2.0664 0.25 0.29297v0.003906c0.046875 0.042969 0.085937 0.09375 0.12109 0.14453 0.52344 0.71094 0.43359 1.7031-0.21094 2.3086-0.039062 0.039063-0.082031 0.074219-0.125 0.10547l-5.3281 4.5156c-0.35156 0.30078-0.80859 0.44531-1.2734 0.40625-0.46094-0.035157-0.88672-0.25781-1.1875-0.60938l-19.738-23.293c-0.30078-0.35156-0.44922-0.8125-0.41016-1.2734 0.039062-0.46094 0.25781-0.88672 0.61328-1.1875l5.3828-4.5625c0.35156-0.29688 0.8125-0.44531 1.2734-0.40625 0.46094 0.039062 0.88672 0.25781 1.1875 0.61328l0.35156 0.41406 2.4453-2.0703-0.003906-0.003907c0.33594-0.28516 0.76953-0.42187 1.207-0.38672s0.84375 0.24609 1.1289 0.58203l0.097656 0.11328c1.207-1.8281 2.2969-3.7344 3.2578-5.707 4.4531-8.5859 10.023-19.332 25.406-15.66h-0.003906c0.066406 0.015625 0.12891 0.035156 0.19141 0.0625l15.188 5.3281 0.082032 0.03125h-0.003907c1.1133 0.47266 2.1094 1.1797 2.9297 2.0664zm20.195-6.7812c-0.47656-0.5-1.3359-0.48828-2.5742 0.035156l-16.418 8.6055c0.20703 0.47266 0.35547 0.96875 0.44141 1.4766l18.551-10.129zm3.7383 1.5586c-0.007812-0.03125-0.015624-0.058594-0.023437-0.085938l0.003906-0.003906c-0.011719-0.050782-0.039062-0.097656-0.078125-0.13281-0.09375-0.054687-0.20312-0.082031-0.3125-0.082031-0.49609 0-0.98828 0.082031-1.457 0.24219l-20.48 11.184c-0.14062 0.62109-0.37109 1.2227-0.69141 1.7773 0.26562-0.007813 0.52344-0.046875 0.77734-0.12109 0.28125-0.078125 0.54688-0.19531 0.79688-0.33984l21.465-12.441zm-74.426 22.559 16.234 19.156 2.0156-1.7109-16.234-19.152zm-3.168-0.31641-4.668 3.957 19.137 22.578 4.6641-3.9531zm52.359-7.0781c-1.7539 1.0078-3.8594 1.2188-5.7773 0.57031l-14.324-4.168c-0.28906-0.074219-0.53516-0.26172-0.68359-0.52344-0.14844-0.25781-0.18359-0.56641-0.10156-0.85547 0.082031-0.28516 0.28125-0.52734 0.54297-0.66797 0.26562-0.14062 0.57422-0.16797 0.85937-0.074219l14.324 4.1641c1.6055 0.59375 3.4023 0.26563 4.6914-0.85937 0.47266-0.44922 0.82812-1.0039 1.0469-1.6211 0.22266-0.625 0.29688-1.2969 0.21875-1.957-0.30078-1.8242-1.5625-3.3477-3.3008-3.9844l-15.117-5.3008c-13.684-3.25-18.805 6.6328-22.898 14.527-1.0781 2.2422-2.332 4.3945-3.7539 6.4336l14.258 16.82c6.3984-3.5078 10.105-3.1328 13.734-2.7656 4.5469 0.45703 8.9609 0.90234 19.727-8.1289 0.019531-0.015625 0.042969-0.035156 0.0625-0.050781l27.992-20.219c0.74609-0.74609 1.207-1.7266 1.3008-2.7773 0.007812-0.48047-0.14453-0.94922-0.4375-1.332-0.34766-0.42969-0.80859-0.75-1.3281-0.93359-1.3711-0.4375-2.8555-0.38281-4.1914 0.16016l-21.965 12.73c-0.82031 0.48828-1.7617 0.75391-2.7188 0.76172zm1.3828-58.711c6.8828 0 13.375 3.1992 17.562 8.6602 4.1914 5.4609 5.6016 12.559 3.8203 19.203-1.7812 6.6484-6.5508 12.09-12.91 14.723-6.3594 2.6367-13.578 2.1602-19.539-1.2773-5.9609-3.4414-9.9805-9.4609-10.879-16.281-0.89844-6.8242 1.4258-13.68 6.293-18.543 4.1484-4.1602 9.7812-6.4922 15.652-6.4844zm14.082 8.0547v-0.003906c4.3789 4.3789 6.4727 10.547 5.6641 16.684-0.80859 6.1406-4.4258 11.555-9.7852 14.652-5.3633 3.0938-11.859 3.5195-17.582 1.1523-5.7188-2.3711-10.016-7.2656-11.617-13.246-1.6016-5.9805-0.33203-12.367 3.4375-17.281 3.7695-4.9141 9.6094-7.793 15.801-7.793 5.2852-0.003906 10.352 2.0938 14.082 5.832zm-24.328 25.438c0.011719 0.30078-0.10156 0.58984-0.3125 0.80469-0.20703 0.21875-0.49609 0.33984-0.79688 0.33984s-0.58984-0.12109-0.79688-0.33984c-0.21094-0.21484-0.32031-0.50391-0.3125-0.80469 0-5.2539 3.293-9.9414 8.2305-11.73-2.1992-1.7539-3.0859-4.6875-2.2305-7.3672 0.85547-2.6797 3.2773-4.5547 6.0859-4.7148 2.8086-0.15625 5.4258 1.4375 6.5742 4.0078 1.1484 2.5664 0.59375 5.582-1.3945 7.5703-0.17969 0.17969-0.36719 0.34766-0.56641 0.50391 4.9375 1.7891 8.2305 6.4766 8.2305 11.73 0.011718 0.30078-0.10156 0.58984-0.3125 0.80469-0.20703 0.21875-0.49609 0.33984-0.79688 0.33984s-0.58594-0.12109-0.79688-0.33984c-0.20703-0.21484-0.32031-0.50391-0.3125-0.80469-0.058594-5.6172-4.6289-10.145-10.246-10.145s-10.188 4.5273-10.246 10.145z" fill-rule="evenodd"/>
</svg>