<svg xmlns="http://www.w3.org/2000/svg" version="1.1" viewBox="-5.0 -10.0 110.0 135.0">
 <path fill="#2A3A93" d="m53.738 13.766h8.5273-0.003906c5.2148-3.0781 11.566-3.5469 17.176-1.2695s9.8398 7.0391 11.434 12.879c1.5938 5.8438 0.375 12.094-3.3008 16.906-3.6719 4.8125-9.3828 7.6328-15.438 7.6328h-0.30469v44.375c-0.003906 1.6992-1.3789 3.0742-3.0742 3.0781h-57.234c-1.6992 0-3.0742-1.3789-3.0781-3.0781v-77.445c0.003906-1.6992 1.3789-3.0781 3.0781-3.082h15.016v-0.10547c0.003906-1.2383 1.0078-2.2461 2.25-2.25h3.8047v-1.2266c0.046875-4.1328 3.4141-7.457 7.5469-7.457 4.1328 0 7.5 3.3242 7.5469 7.457v1.2266h3.8047c1.2422 0.003906 2.2461 1.0078 2.25 2.25zm5.4922 2.2227h-5.4922v1.0352h4.4141c0.085937-0.085938 0.16797-0.17188 0.25391-0.26172 0.26562-0.26562 0.53906-0.52344 0.82031-0.77344zm-2.9219 3.2539h-2.5703v0.58203c-0.003906 1.9609-1.5938 3.5508-3.5547 3.5508h-20.098c-1.9609 0-3.5469-1.5898-3.5508-3.5508v-0.58203h-12.352c-0.14453 0-0.26562 0.12109-0.26562 0.26562v72.117c0 0.14844 0.12109 0.26562 0.26562 0.26953h51.902c0.14844-0.003906 0.26953-0.12109 0.26953-0.26953v-42.586c-5.9375-1.8555-10.633-6.4414-12.617-12.336-1.9883-5.8984-1.0352-12.391 2.5703-17.461zm12.266 30.348v42.035c0 1.375-1.1133 2.4883-2.4883 2.4883h-51.902c-1.3711 0-2.4844-1.1133-2.4883-2.4883v-72.117c0.003907-1.3711 1.1172-2.4844 2.4883-2.4844h12.352v-1.0352h-15.016c-0.47266 0-0.85547 0.38281-0.85938 0.85547v77.445c0.003906 0.47266 0.38672 0.85547 0.85938 0.85938h57.234c0.47266-0.003907 0.85547-0.38672 0.85547-0.85938v-44.539c-0.35156-0.046875-0.69531-0.10156-1.0352-0.16406zm15.727-31.258c-3.7812-3.7812-9.1055-5.5898-14.41-4.8906-5.3008 0.69531-9.9766 3.8203-12.652 8.4492-2.6719 4.6328-3.043 10.246-0.99609 15.188 2.0469 4.9414 6.2734 8.6484 11.441 10.031 5.1641 1.3867 10.68 0.28906 14.926-2.9688 4.2422-3.2539 6.7305-8.2969 6.7305-13.645 0.003906-4.5625-1.8086-8.9414-5.0391-12.164zm-15.719-0.42188c-0.39062 0-0.76562 0.15625-1.0391 0.43359-0.27734 0.27344-0.43359 0.64844-0.43359 1.0352v6.082h-6.0781c-0.33203 0-0.65234 0.10937-0.91406 0.31641-0.042969 0.03125-0.085938 0.066406-0.125 0.10547-0.27734 0.27344-0.43359 0.64844-0.43359 1.0391v7.1133c0 0.39062 0.15625 0.76172 0.43359 1.0391 0.27344 0.27734 0.64844 0.43359 1.0352 0.43359h6.0781v6.082h0.003906c-0.003906 0.32812 0.10938 0.65234 0.31641 0.91016 0.03125 0.046875 0.070313 0.089844 0.10938 0.12891 0.27344 0.27734 0.64844 0.42969 1.0391 0.42969h7.1211c0.8125 0 1.4727-0.66016 1.4727-1.4727v-6.0664h6.082c0.38672 0.003907 0.76172-0.15234 1.0391-0.42969 0.27734-0.27344 0.42969-0.64844 0.43359-1.0391v-7.1133c0-0.8125-0.66016-1.4727-1.4727-1.4727h-6.0859v-6.0781c0-0.33203-0.11328-0.65234-0.32031-0.91016-0.03125-0.046874-0.066406-0.089843-0.10547-0.12891-0.27734-0.27734-0.65234-0.43359-1.0391-0.43359zm6.3672 2.2266h-5.6172v6.4414c-0.003906 0.61328-0.5 1.1055-1.1094 1.1055h-6.4414v5.6133h6.4414c0.61328 0 1.1094 0.5 1.1094 1.1133v6.4414h5.6172v-6.4414c0-0.61328 0.49609-1.1094 1.1094-1.1094h6.4414l-0.003906-5.6172h-6.4414c-0.60938 0-1.1055-0.49609-1.1055-1.1055zm-38.094 64.68h22.906c0.61328 0 1.1133-0.5 1.1133-1.1133s-0.5-1.1094-1.1133-1.1094h-22.906c-0.61328 0-1.1094 0.49609-1.1094 1.1094s0.49609 1.1133 1.1094 1.1133zm0-5.207h11.453c0.61328 0 1.1133-0.5 1.1133-1.1133 0-0.61328-0.5-1.1094-1.1133-1.1094h-11.453c-0.61328 0-1.1094 0.49609-1.1094 1.1094 0 0.61328 0.49609 1.1133 1.1094 1.1133zm-16.348-4.1992c-0.29297 0-0.57422 0.11719-0.78516 0.32422-0.20703 0.20703-0.32422 0.48828-0.32422 0.78516v9.1562c0 0.61328 0.49609 1.1133 1.1094 1.1133h9.1602c0.61328 0 1.1094-0.49219 1.1133-1.1055v-9.1562c0-0.61328-0.49609-1.1094-1.1094-1.1094zm8.0508 2.2188h-6.9375v6.9414h6.9414v-6.9414zm8.293-7.9297h22.91c0.30078 0.007812 0.59375-0.10547 0.80859-0.3125 0.21484-0.21094 0.33594-0.5 0.33594-0.79688 0-0.30078-0.12109-0.58984-0.33594-0.80078-0.21484-0.20703-0.50781-0.32031-0.80859-0.3125h-22.906c-0.30078-0.007812-0.58984 0.10547-0.80469 0.3125-0.21875 0.21094-0.33984 0.5-0.33984 0.80078 0 0.29688 0.12109 0.58594 0.33984 0.79688 0.21484 0.20703 0.50391 0.32031 0.80469 0.3125zm0-5.207h11.457c0.61328 0 1.1133-0.49609 1.1133-1.1094 0-0.61328-0.5-1.1094-1.1133-1.1094h-11.453c-0.61328 0-1.1094 0.49609-1.1094 1.1094 0 0.61328 0.49609 1.1094 1.1094 1.1094zm-16.348-4.1992h0.003906c-0.29297 0-0.57422 0.11719-0.78516 0.32422-0.20703 0.21094-0.32422 0.49219-0.32422 0.78516v9.1602c0 0.61328 0.49609 1.1094 1.1094 1.1094h9.1602c0.29297 0 0.57812-0.11719 0.78516-0.32422 0.20703-0.21094 0.32422-0.49219 0.32422-0.78516v-9.1602c0-0.61328-0.49609-1.1094-1.1094-1.1094zm8.0508 2.2188-6.9336 0.003906v6.9492h6.9414v-6.9492zm8.293-7.9297h22.914c0.30078 0.007813 0.59375-0.10156 0.80859-0.3125 0.21484-0.21094 0.33594-0.49609 0.33594-0.79688 0-0.30078-0.12109-0.58984-0.33594-0.79688-0.21484-0.21094-0.50781-0.32422-0.80859-0.3125h-22.906c-0.30078-0.011719-0.58984 0.10156-0.80469 0.3125-0.21875 0.20703-0.33984 0.49609-0.33984 0.79688 0 0.30078 0.12109 0.58594 0.33984 0.79688 0.21484 0.21094 0.50391 0.32031 0.80469 0.3125zm0-5.207h11.461c0.61328 0 1.1133-0.49609 1.1133-1.1094s-0.5-1.1094-1.1133-1.1094h-11.453c-0.61328 0-1.1094 0.49609-1.1094 1.1094s0.49609 1.1094 1.1094 1.1094zm-16.348-4.1992 0.007812 0.003907c-0.61328 0-1.1094 0.49609-1.1094 1.1094v9.1562c0 0.61328 0.49609 1.1133 1.1094 1.1133h9.1602c0.29297 0 0.57812-0.11719 0.78516-0.32812 0.20703-0.20703 0.32422-0.48828 0.32422-0.78516v-9.1562c0-0.29687-0.11719-0.57812-0.32422-0.78516-0.20703-0.20703-0.49219-0.32422-0.78516-0.32422zm8.0508 2.2188-6.9297 0.003907v6.9414h6.9414v-6.9414zm9.1445-31.09h4.8594l0.011718 0.003906c0.61328 0 1.1094-0.49609 1.1094-1.1094s-0.49609-1.1094-1.1094-1.1094h-4.8594c-0.61328 0-1.1094 0.49609-1.1094 1.1094s0.49609 1.1094 1.1094 1.1094zm2.4414-9.8828c-1.6289 0-3.0312 1.1484-3.3516 2.7461-0.31641 1.5977 0.53906 3.1992 2.043 3.8242 1.5078 0.62109 3.2422 0.09375 4.1484-1.2578 0.90234-1.3555 0.72656-3.1602-0.42578-4.3125-0.64062-0.64062-1.5078-1-2.4141-1zm0.84375 2.5703c-0.40234-0.40234-1.0352-0.46484-1.5078-0.14844s-0.65625 0.92188-0.4375 1.4492c0.21875 0.52344 0.77734 0.82031 1.3359 0.71094 0.55469-0.11328 0.95703-0.60156 0.95703-1.1719 0-0.31641-0.125-0.61719-0.34766-0.83984zm-8.3906 4.6406h-3.8047c-0.007812 0-0.015625 0.003907-0.019531 0.007813-0.007813 0.003906-0.007813 0.011719-0.011719 0.019531v6.168c0.007813 0.73438 0.60156 1.3281 1.332 1.3281h20.098c0.73438 0 1.332-0.59766 1.332-1.3281v-6.1719c0-0.007812-0.003906-0.011719-0.007813-0.019531-0.003906-0.003907-0.011718-0.007813-0.019531-0.007813h-3.8047v3.6445c0 1.2422-1.0078 2.2461-2.25 2.25h-10.59c-1.2422-0.003907-2.25-1.0078-2.25-2.25v-3.6445zm11.305-7.2109c-1.5234-1.5195-3.8125-1.9727-5.7969-1.1484-1.9883 0.82031-3.2891 2.7578-3.293 4.9102v7.0898c0 0.007812 0.003906 0.015624 0.011718 0.019531 0.003906 0.007812 0.011719 0.011719 0.019532 0.011719h10.598c0.015625-0.003907 0.027344-0.015626 0.03125-0.03125v-7.0938c-0.003906-1.4102-0.56641-2.7656-1.5703-3.7578z" fill-rule="evenodd"/>
</svg>